<svg id="Capa_1" data-name="Capa 1" xmlns="http://www.w3.org/2000/svg" viewBox="0 0 1000 1000"><path d="M430.64,836.35q-44.46-133.27-88.91-266.56L252.41,302l-50.23-150.6-7.24,9.49H348.73l-7.23-5.5q41.75,133.51,83.5,267,41.81,133.68,83.62,267.36l47.06,150.5,7.23-9.49H423.41c-9.65,0-9.67,15,0,15h139.5c4.74,0,8.7-4.81,7.23-9.49L486.47,568.77Q444.68,435.17,402.9,301.55,379.44,226.49,356,151.44a7.7,7.7,0,0,0-7.23-5.51H194.94c-4.66,0-8.79,4.83-7.23,9.5l89.07,267,89.27,267.63,50.13,150.26C419.22,849.45,433.71,845.54,430.64,836.35Z"/><path d="M658.14,495.78c6.15,6.21,15.65,4.12,23.63,4,9-.19,18.09-.42,27.14-.42,8.65,0,17.72-.28,26.18,1.76,7.5,1.8,14.25,5.19,20.75,9.3a90.29,90.29,0,0,1,30.09,30.86c9,15.54,16,32.56,23.34,48.92,15.16,33.74,29.2,68,43.65,102,7.14,16.81,14.37,33.57,21.91,50.2,7.42,16.36,14.73,33,23.5,48.72,8.5,15.2,20.08,30.29,35.11,39.51A70.25,70.25,0,0,0,956,839.44c8.93,1.83,18.14,1.44,27.05,3.19l-5.24-5.24.15,1,3.44-8.47c-1.61.78-5-.08-6.82-.11-2.64-.05-5.28,0-7.92,0l-17,.27q-16.47.29-33,.53c-21,.29-42.09.83-63.06-.24-15.56-.8-30.58-3.51-44.12-11.6-12.86-7.68-22.62-19.08-29.91-32-10.24-18.17-18.53-37.31-26.85-56.41q-12.66-29.1-24.75-58.45Q703.7,612.85,676,555.31c-9.36-19.56-18.7-38.81-36.39-52.24a71.49,71.49,0,0,0-25.33-12.27c-10.91-2.81-22.5-3.09-33.67-4.08L587.08,498l-3.5.83q1.84.32,3.69.54c1.28.18,2.55.35,3.83.47a77,77,0,0,0,9.11.35A94.2,94.2,0,0,0,618.3,498a88.93,88.93,0,0,0,30-12.3c18-11.93,32-30,42-48.85C712.65,395,719.77,344.82,716,298c-3.67-45.83-18.1-93.32-50.91-126.91-14.85-15.21-33.63-23.53-54.46-26.69a217.24,217.24,0,0,0-75.35,1.51,86.88,86.88,0,0,0-50.74,30.43c-15.31,19-22.55,41.52-25.73,65.45l14.73-2c-1.81-6.77-1.77-13.91-3.11-20.8a88,88,0,0,0-6.33-18.56,103.39,103.39,0,0,0-18.26-28.22,93.22,93.22,0,0,0-25.69-19.63c-11.65-6-23.51-8.9-36.35-11.11l5.51,7.23.11-1-7.5,7.5c60.05,0,120.1-.24,180.16-.14q22.9,0,45.81.16c13.87.07,27.79-.16,41.63,1.11a197.42,197.42,0,0,1,68.71,19.07c41.91,20.59,78.12,55.56,90.6,101.55,11.35,41.82,6.55,88.61-16.48,125.63-13.47,21.64-32.56,40.19-54,53.89-23.63,15.1-49.45,22.6-76.94,26.81-4,.61-6.24,5.65-5.24,9.23,1.2,4.27,5.19,5.85,9.23,5.24,25.67-3.94,50.13-10.75,72.84-23.69a193.86,193.86,0,0,0,56.54-49c28.89-37.1,39-83.24,32.88-129.47-3.24-24.57-11.52-48.12-25.54-68.66s-32.68-37.58-53.39-51.33a209.32,209.32,0,0,0-70.23-29.85c-27.87-6.17-56.2-5.51-84.57-5.62-70.67-.29-141.35,0-212,0-4.38,0-7.06,3.46-7.5,7.5l-.11,1c-.33,3,2.54,6.72,5.5,7.23,11.26,1.94,21.9,4.06,32.16,9.29a81.42,81.42,0,0,1,23.27,17.59,90.08,90.08,0,0,1,15.62,24.55,73,73,0,0,1,5.27,16.55c1.19,6.6,1.2,13.37,2.95,19.86,2.37,8.83,13.69,5.86,14.73-2C478.46,207,496.35,172.2,532.18,162c21.61-6.13,45.58-6.53,67.77-4.09,19.6,2.15,37.77,7.6,52.31,21.47C683,208.73,696.89,253,700.71,294.27c4,43.6-1.26,90.05-20.67,129.74-9.49,19.41-23.19,39-42,50.4a77.37,77.37,0,0,1-32.45,10.48,78.34,78.34,0,0,1-18.55-.6c-5.51-.8-10.52.69-12.93,6.14s.45,10.75,6.48,11.29c18.21,1.62,36.21,2.21,51.15,14.11,15.5,12.34,23.37,30.5,31.7,47.91q27.82,58.11,52.38,117.59,12.49,30.24,25.59,60.2c8.28,19,16.46,38.24,27.13,56,16.63,27.7,43.77,44.37,75.85,47.25,23.64,2.11,47.65,1.19,71.35.88q18.47-.25,37-.6c6-.1,12-.26,18-.28,6.41,0,12.4,1,18.32-1.9,3.26-1.58,3.89-5.32,3.45-8.47l-.14-1c-.33-2.35-3-4.79-5.24-5.23-14.58-2.86-29.29-1.46-42.83-8.68s-23.56-20.06-31.25-33c-8.91-15-16-31.43-23.21-47.32-7.6-16.6-14.87-33.35-22-50.15-14.22-33.4-28-67-42.74-100.16-7.41-16.67-15-33.31-23.16-49.61a101.58,101.58,0,0,0-27.51-34c-13.83-11-29.44-19.15-47.29-20.43-10.21-.73-20.49-.56-30.72-.39-4.85.08-9.71.19-14.56.29l-7.77.15-2.91.05c-.83,0-1.65,0-2.48.05s-.71.05.14.18C661.94,478.31,651.33,488.91,658.14,495.78Z"/><path d="M102.62,765.66l-.5-.7-1-3.78c.81,6.28,1.1,12.52,2.55,18.73a91.34,91.34,0,0,0,7.09,19.14A100.6,100.6,0,0,0,129.63,826a88.19,88.19,0,0,0,26.51,18.34A97.45,97.45,0,0,0,173,850.27c5.81,1.39,13.29.33,18.66,2.94v-13c-1.05.65-1.31.71-.77.2.75-.68.17-.77-1.73-.28-1.64-.14-3.35,0-5,0H151.22l-42.88,0Q65,840,21.58,840l3.79,1,1.47,1.38-6.48,11.29c24.75-2.59,48-10.46,65.87-28.4,17.7-17.73,26.44-41.31,27.67-66.07.48-9.65-14.52-9.62-15,0-1,20.8-8.41,40.57-23.28,55.46s-34.52,21.84-55.26,24c-5.36.56-9.73,6-6.48,11.28,4.26,6.88,12.64,5,19.67,5.05l23.93,0,48.87.07,47.86,0,23.94,0c7.09,0,14.49,1.07,21-1.95,5-2.3,4.83-10.61,0-13-6.12-3-12.24-2.79-18.83-3.76a67.22,67.22,0,0,1-16.25-5,75.83,75.83,0,0,1-25.28-17.61,89.55,89.55,0,0,1-17-26.42,74.77,74.77,0,0,1-5.28-20.25c-.7-5.79-.14-11.7-6.38-14.55-3.71-1.7-8-1-10.26,2.69C98,758.61,98.94,764,102.62,765.66Z"/></svg>